<?xml version="1.0" encoding="UTF-8"?>
<svg version="1.1" xmlns="http://www.w3.org/2000/svg" width="146" height="48">
<path d="M0 0 C2.86452833 0.31893186 2.86452833 0.31893186 6.4921875 0.12109375 C14.80027608 0.01767356 23.46371279 1.5803089 29.6796875 7.24609375 C30.1540625 6.60671875 30.6284375 5.96734375 31.1171875 5.30859375 C34.73388785 2.39759103 38.15173644 2.43959593 42.6796875 2.24609375 C41.19991871 7.91854076 41.19991871 7.91854076 38.9921875 9.30859375 C38.2290625 9.61796875 37.4659375 9.92734375 36.6796875 10.24609375 C35.65786945 11.11994361 34.63715912 11.99508942 33.6171875 12.87109375 C29.02428085 16.29070329 24.16267617 15.69226824 18.6796875 15.24609375 C18.6796875 14.25609375 18.6796875 13.26609375 18.6796875 12.24609375 C20.3296875 11.91609375 21.9796875 11.58609375 23.6796875 11.24609375 C21.2046875 8.77109375 21.2046875 8.77109375 18.6796875 6.24609375 C18.0196875 6.57609375 17.3596875 6.90609375 16.6796875 7.24609375 C16.6796875 8.89609375 16.6796875 10.54609375 16.6796875 12.24609375 C14.7630995 12.27321528 12.8464002 12.29254472 10.9296875 12.30859375 C9.32867187 12.32599609 9.32867187 12.32599609 7.6953125 12.34375 C5.1306124 12.26069624 3.13683078 11.86037957 0.6796875 11.24609375 C-0.3103125 11.74109375 -0.3103125 11.74109375 -1.3203125 12.24609375 C-1.30871094 11.60800781 -1.29710938 10.96992188 -1.28515625 10.3125 C-1.27613281 9.48621094 -1.26710938 8.65992188 -1.2578125 7.80859375 C-1.24621094 6.98488281 -1.23460938 6.16117188 -1.22265625 5.3125 C-1.08763902 3.25445437 -1.08763902 3.25445437 -2.3203125 2.24609375 C-2.3203125 5.54609375 -2.3203125 8.84609375 -2.3203125 12.24609375 C-4.9603125 12.24609375 -7.6003125 12.24609375 -10.3203125 12.24609375 C-10.6503125 10.59609375 -10.9803125 8.94609375 -11.3203125 7.24609375 C-11.3203125 8.89609375 -11.3203125 10.54609375 -11.3203125 12.24609375 C-11.6503125 10.92609375 -11.9803125 9.60609375 -12.3203125 8.24609375 C-13.9703125 8.24609375 -15.6203125 8.24609375 -17.3203125 8.24609375 C-17.6503125 9.56609375 -17.9803125 10.88609375 -18.3203125 12.24609375 C-21.6203125 12.24609375 -24.9203125 12.24609375 -28.3203125 12.24609375 C-28.3203125 9.27609375 -28.3203125 6.30609375 -28.3203125 3.24609375 C-23.7003125 2.91609375 -19.0803125 2.58609375 -14.3203125 2.24609375 C-14.6503125 1.58609375 -14.9803125 0.92609375 -15.3203125 0.24609375 C-10.006981 -0.81657255 -5.37618326 -0.59006889 0 0 Z M10.6796875 2.24609375 C10.6796875 2.57609375 10.6796875 2.90609375 10.6796875 3.24609375 C12.3296875 3.24609375 13.9796875 3.24609375 15.6796875 3.24609375 C15.6796875 2.91609375 15.6796875 2.58609375 15.6796875 2.24609375 C14.0296875 2.24609375 12.3796875 2.24609375 10.6796875 2.24609375 Z M1.6796875 8.24609375 C2.6796875 10.24609375 2.6796875 10.24609375 2.6796875 10.24609375 Z " fill="#D4D4D4" transform="translate(103.3203125,16.75390625)"/>
<path d="M0 0 C6.625 -0.125 6.625 -0.125 10 1 C10 2.32 10 3.64 10 5 C11.155 4.649375 12.31 4.29875 13.5 3.9375 C20.59332627 2.30933683 27.82732068 3.34873832 35 4 C35 6.97 35 9.94 35 13 C23.45 13 11.9 13 0 13 C0 8.71 0 4.42 0 0 Z M19 6 C19 6.33 19 6.66 19 7 C20.98 7 22.96 7 25 7 C25 6.67 25 6.34 25 6 C23.02 6 21.04 6 19 6 Z M8 7 C8 7.66 8 8.32 8 9 C8.99 8.67 9.98 8.34 11 8 C10.01 7.67 9.02 7.34 8 7 Z " fill="#F0F0F0" transform="translate(39,16)"/>
<path d="M0 0 C1.87363965 0.54471042 1.87363965 0.54471042 3.77734375 -0.66015625 C3.77734375 3.29984375 3.77734375 7.25984375 3.77734375 11.33984375 C2.45734375 11.00984375 1.13734375 10.67984375 -0.22265625 10.33984375 C-2.65204314 10.69216582 -2.65204314 10.69216582 -5.22265625 11.33984375 C-14.13596419 13.10343944 -23.98639631 12.45797372 -32.22265625 8.33984375 C-32.22265625 6.35984375 -32.22265625 4.37984375 -32.22265625 2.33984375 C-21.49101375 -1.91580759 -11.26638464 -3.11710099 0 0 Z M-22.22265625 4.33984375 C-21.89265625 5.32984375 -21.56265625 6.31984375 -21.22265625 7.33984375 C-13.47931368 9.92095794 -4.96973755 8.22199799 2.77734375 6.33984375 C2.77734375 5.67984375 2.77734375 5.01984375 2.77734375 4.33984375 C-10.09574585 1.07100696 -10.09574585 1.07100696 -22.22265625 4.33984375 Z " fill="#CFCFCF" transform="translate(34.22265625,17.66015625)"/>
<path d="M0 0 C2.39196949 0.22370938 4.69069926 0.29472345 7.08984375 0.25390625 C10.17157623 0.25390625 12.74126989 0.51051278 15.71484375 1.25390625 C15.71484375 1.58390625 15.71484375 1.91390625 15.71484375 2.25390625 C13.73484375 2.58390625 11.75484375 2.91390625 9.71484375 3.25390625 C9.71484375 2.59390625 9.71484375 1.93390625 9.71484375 1.25390625 C7.73484375 1.25390625 5.75484375 1.25390625 3.71484375 1.25390625 C3.38484375 1.91390625 3.05484375 2.57390625 2.71484375 3.25390625 C0.23984375 2.75890625 0.23984375 2.75890625 -2.28515625 2.25390625 C-2.28515625 5.55390625 -2.28515625 8.85390625 -2.28515625 12.25390625 C-4.92515625 12.25390625 -7.56515625 12.25390625 -10.28515625 12.25390625 C-10.61515625 10.60390625 -10.94515625 8.95390625 -11.28515625 7.25390625 C-11.28515625 8.90390625 -11.28515625 10.55390625 -11.28515625 12.25390625 C-11.61515625 10.93390625 -11.94515625 9.61390625 -12.28515625 8.25390625 C-13.93515625 8.25390625 -15.58515625 8.25390625 -17.28515625 8.25390625 C-17.61515625 9.57390625 -17.94515625 10.89390625 -18.28515625 12.25390625 C-21.58515625 12.25390625 -24.88515625 12.25390625 -28.28515625 12.25390625 C-28.28515625 9.28390625 -28.28515625 6.31390625 -28.28515625 3.25390625 C-23.66515625 2.92390625 -19.04515625 2.59390625 -14.28515625 2.25390625 C-14.61515625 1.59390625 -14.94515625 0.93390625 -15.28515625 0.25390625 C-9.98422926 -0.80627915 -5.36394135 -0.58127759 0 0 Z " fill="#AAABAB" transform="translate(103.28515625,16.74609375)"/>
<path d="M0 0 C1.8253125 0.00966797 1.8253125 0.00966797 3.6875 0.01953125 C6.35144644 0.15461344 8.45138431 0.5444465 11 1.1875 C11.66 0.8575 12.32 0.5275 13 0.1875 C13 4.1475 13 8.1075 13 12.1875 C11.68 11.8575 10.36 11.5275 9 11.1875 C6.93328586 11.31730675 6.93328586 11.31730675 4.8125 11.6875 C0.0181284 12.31666172 -4.22249411 11.87000084 -9 11.1875 C-9 10.8575 -9 10.5275 -9 10.1875 C-8.14535156 10.13851563 -7.29070313 10.08953125 -6.41015625 10.0390625 C-5.30542969 9.96429688 -4.20070313 9.88953125 -3.0625 9.8125 C-1.40927734 9.70808594 -1.40927734 9.70808594 0.27734375 9.6015625 C1.62505859 9.39660156 1.62505859 9.39660156 3 9.1875 C3.33 8.5275 3.66 7.8675 4 7.1875 C6.64 7.1875 9.28 7.1875 12 7.1875 C12 6.5275 12 5.8675 12 5.1875 C10.081875 5.2184375 10.081875 5.2184375 8.125 5.25 C4.25 5.3125 4.25 5.3125 2 4.1875 C2 3.5275 2 2.8675 2 2.1875 C-2.29 2.1875 -6.58 2.1875 -11 2.1875 C-6.73059334 0.05279667 -4.68116487 -0.05454747 0 0 Z " fill="#EFEFEF" transform="translate(25,16.8125)"/>
<path d="M0 0 C1.98 0 3.96 0 6 0 C6 0.66 6 1.32 6 2 C7.65 2 9.3 2 11 2 C11 2.66 11 3.32 11 4 C9.35 4 7.7 4 6 4 C6 5.65 6 7.3 6 9 C7.98 9 9.96 9 12 9 C12 9.66 12 10.32 12 11 C10.25008666 11.02715383 8.50005055 11.04646551 6.75 11.0625 C5.28820312 11.07990234 5.28820312 11.07990234 3.796875 11.09765625 C1 11 1 11 -1.234375 10.43359375 C-3.09090023 9.77560823 -3.09090023 9.77560823 -5 11 C-5 8.03 -5 5.06 -5 2 C-3.35 2 -1.7 2 0 2 C0 1.34 0 0.68 0 0 Z M-2 7 C-1 9 -1 9 -1 9 Z " fill="#ECECED" transform="translate(107,18)"/>
<path d="M0 0 C5.28 0.33 10.56 0.66 16 1 C16 1.33 16 1.66 16 2 C13.69 2 11.38 2 9 2 C9.33 2.66 9.66 3.32 10 4 C12.31 4 14.62 4 17 4 C17 5.65 17 7.3 17 9 C16.67 7.68 16.34 6.36 16 5 C14.35 5 12.7 5 11 5 C10.67 6.32 10.34 7.64 10 9 C6.7 9 3.4 9 0 9 C0 6.03 0 3.06 0 0 Z " fill="#E5E5E5" transform="translate(75,20)"/>
<path d="M0 0 C2.31 0 4.62 0 7 0 C7 4.29 7 8.58 7 13 C4.69 13 2.38 13 0 13 C0 8.71 0 4.42 0 0 Z " fill="#E9E9E9" transform="translate(39,16)"/>
<path d="M0 0 C0.33 0 0.66 0 1 0 C2.125 5.75 2.125 5.75 1 8 C2.65 7.67 4.3 7.34 6 7 C5.67 7.99 5.34 8.98 5 10 C6.32 10 7.64 10 9 10 C9 9.34 9 8.68 9 8 C12.63 8 16.26 8 20 8 C20 9.32 20 10.64 20 12 C13.4 12 6.8 12 0 12 C0 8.04 0 4.08 0 0 Z " fill="#A2A3A3" transform="translate(46,17)"/>
<path d="M0 0 C0.33 1.32 0.66 2.64 1 4 C2.2375 3.649375 3.475 3.29875 4.75 2.9375 C10.59105465 1.60532964 16.10891542 2.26236843 22 3 C22 3.33 22 3.66 22 4 C21.14535156 4.13277344 20.29070312 4.26554687 19.41015625 4.40234375 C18.30542969 4.57894531 17.20070313 4.75554688 16.0625 4.9375 C14.96035156 5.11152344 13.85820313 5.28554688 12.72265625 5.46484375 C10.09573071 5.71845136 10.09573071 5.71845136 9 7 C7.48071962 7.07179964 5.95832518 7.08392007 4.4375 7.0625 C3.61121094 7.05347656 2.78492188 7.04445313 1.93359375 7.03515625 C1.29550781 7.02355469 0.65742187 7.01195312 0 7 C0 4.69 0 2.38 0 0 Z " fill="#BABABA" transform="translate(48,17)"/>
<path d="M0 0 C1.65 0 3.3 0 5 0 C5 2.64 5 5.28 5 8 C3.35 8 1.7 8 0 8 C0 5.36 0 2.72 0 0 Z " fill="#FCFCFC" transform="translate(95,20)"/>
<path d="M0 0 C1.26328125 0.01804687 2.5265625 0.03609375 3.828125 0.0546875 C4.79234375 0.07789062 5.7565625 0.10109375 6.75 0.125 C6.75 0.785 6.75 1.445 6.75 2.125 C7.41 2.455 8.07 2.785 8.75 3.125 C2.15 2.795 -4.45 2.465 -11.25 2.125 C-6.91061709 -0.04469145 -4.76609592 -0.08826104 0 0 Z " fill="#F7F7F7" transform="translate(25.25,16.875)"/>
<path d="M0 0 C0.33 0.99 0.66 1.98 1 3 C0.67 3.66 0.34 4.32 0 5 C-6.0546875 5.1953125 -6.0546875 5.1953125 -8 5 C-8.66 4.34 -9.32 3.68 -10 3 C-9.2575 2.855625 -8.515 2.71125 -7.75 2.5625 C-3.54104514 1.9850722 -3.54104514 1.9850722 0 0 Z " fill="#B9B9B9" transform="translate(37,17)"/>
<path d="M0 0 C1.37478516 0.01740234 1.37478516 0.01740234 2.77734375 0.03515625 C3.69644531 0.04417969 4.61554687 0.05320312 5.5625 0.0625 C6.27277344 0.07410156 6.98304687 0.08570312 7.71484375 0.09765625 C7.71484375 0.42765625 7.71484375 0.75765625 7.71484375 1.09765625 C5.40484375 1.09765625 3.09484375 1.09765625 0.71484375 1.09765625 C0.71484375 1.75765625 0.71484375 2.41765625 0.71484375 3.09765625 C1.37484375 3.42765625 2.03484375 3.75765625 2.71484375 4.09765625 C0.73484375 4.09765625 -1.24515625 4.09765625 -3.28515625 4.09765625 C-3.28515625 0.14039129 -3.28515625 0.14039129 0 0 Z " fill="#FEFEFE" transform="translate(54.28515625,23.90234375)"/>
<path d="M0 0 C3.96 0.33 7.92 0.66 12 1 C12 1.33 12 1.66 12 2 C10.56589632 2.24954005 9.12739928 2.47392642 7.6875 2.6875 C6.88699219 2.81511719 6.08648437 2.94273438 5.26171875 3.07421875 C3 3 3 3 0 0 Z " fill="#A7A7A7" transform="translate(58,19)"/>
<path d="M0 0 C4.29 0 8.58 0 13 0 C12.67 0.66 12.34 1.32 12 2 C8.04 1.67 4.08 1.34 0 1 C0 0.67 0 0.34 0 0 Z " fill="#E6E6E6" transform="translate(108,30)"/>
<path d="M0 0 C4.29 0 8.58 0 13 0 C13 0.33 13 0.66 13 1 C8.71 1 4.42 1 0 1 C0 0.67 0 0.34 0 0 Z " fill="#E4E4E4" transform="translate(59,30)"/>
<path d="M0 0 C3.96 0 7.92 0 12 0 C12 0.33 12 0.66 12 1 C8.04 1 4.08 1 0 1 C0 0.67 0 0.34 0 0 Z " fill="#DFDFDF" transform="translate(15,21)"/>
<path d="M0 0 C3.63 0 7.26 0 11 0 C11 0.33 11 0.66 11 1 C7.37 1 3.74 1 0 1 C0 0.67 0 0.34 0 0 Z " fill="#DCDCDC" transform="translate(16,14)"/>
<path d="M0 0 C3.3 0 6.6 0 10 0 C10 0.33 10 0.66 10 1 C6.7 1 3.4 1 0 1 C0 0.67 0 0.34 0 0 Z " fill="#F2F2F2" transform="translate(16,24)"/>
<path d="M0 0 C2.97 0 5.94 0 9 0 C9 0.33 9 0.66 9 1 C6.03 1 3.06 1 0 1 C0 0.67 0 0.34 0 0 Z " fill="#E2E2E2" transform="translate(75,30)"/>
<path d="M0 0 C2.475 0.99 2.475 0.99 5 2 C4.34 2.66 3.68 3.32 3 4 C2.01 2.68 1.02 1.36 0 0 Z " fill="#9F9F9F" transform="translate(129,20)"/>
<path d="M0 0 C2.31 0 4.62 0 7 0 C7 0.33 7 0.66 7 1 C4.69 1 2.38 1 0 1 C0 0.67 0 0.34 0 0 Z " fill="#FFFFFF" transform="translate(94,30)"/>
<path d="M0 0 C2.31 0 4.62 0 7 0 C7 0.33 7 0.66 7 1 C4.69 1 2.38 1 0 1 C0 0.67 0 0.34 0 0 Z " fill="#FFFFFF" transform="translate(39,30)"/>
<path d="M0 0 C2.31 0 4.62 0 7 0 C7 0.33 7 0.66 7 1 C4.69 1 2.38 1 0 1 C0 0.67 0 0.34 0 0 Z " fill="#ECECEC" transform="translate(24,30)"/>
<path d="M0 0 C2.31 0 4.62 0 7 0 C7 0.33 7 0.66 7 1 C4.69 1 2.38 1 0 1 C0 0.67 0 0.34 0 0 Z " fill="#ECECEC" transform="translate(11,30)"/>
<path d="M0 0 C2.31 0 4.62 0 7 0 C7 0.33 7 0.66 7 1 C4.69 1 2.38 1 0 1 C0 0.67 0 0.34 0 0 Z " fill="#B6B6B6" transform="translate(57,17)"/>
<path d="M0 0 C2.31 0 4.62 0 7 0 C7 0.33 7 0.66 7 1 C4.69 1 2.38 1 0 1 C0 0.67 0 0.34 0 0 Z " fill="#FFFFFF" transform="translate(39,14)"/>
<path d="M0 0 C1.98 0 3.96 0 6 0 C6 0.33 6 0.66 6 1 C4.02 1 2.04 1 0 1 C0 0.67 0 0.34 0 0 Z " fill="#F0F0F0" transform="translate(127,33)"/>
<path d="M0 0 C1.98 0 3.96 0 6 0 C6 0.33 6 0.66 6 1 C4.02 1 2.04 1 0 1 C0 0.67 0 0.34 0 0 Z " fill="#FFFFFF" transform="translate(50,30)"/>
<path d="M0 0 C1.98 0.99 1.98 0.99 4 2 C3.01 2 2.02 2 1 2 C0.67 1.34 0.34 0.68 0 0 Z " fill="#949494" transform="translate(120,23)"/>
<path d="M0 0 C1.98 0 3.96 0 6 0 C6 0.33 6 0.66 6 1 C4.02 1 2.04 1 0 1 C0 0.67 0 0.34 0 0 Z " fill="#000000" transform="translate(107,15)"/>
<path d="M0 0 C1.98 0 3.96 0 6 0 C6 0.33 6 0.66 6 1 C4.02 1 2.04 1 0 1 C0 0.67 0 0.34 0 0 Z " fill="#C9C9C9" transform="translate(10,15)"/>
<path d="M0 0 C1.65 0 3.3 0 5 0 C5 0.33 5 0.66 5 1 C3.35 1 1.7 1 0 1 C0 0.67 0 0.34 0 0 Z " fill="#666666" transform="translate(19,31)"/>
<path d="M0 0 C0.99 0.33 1.98 0.66 3 1 C2.01 1.33 1.02 1.66 0 2 C0 1.34 0 0.68 0 0 Z " fill="#C3C3C3" transform="translate(13,22)"/>
<path d="M0 0 C1.65 0 3.3 0 5 0 C5 0.33 5 0.66 5 1 C3.35 1 1.7 1 0 1 C0 0.67 0 0.34 0 0 Z " fill="#D8D8D8" transform="translate(83,18)"/>
<path d="M0 0 C1.65 0 3.3 0 5 0 C5 0.33 5 0.66 5 1 C3.35 1 1.7 1 0 1 C0 0.67 0 0.34 0 0 Z " fill="#FFFFFF" transform="translate(65,18)"/>
<path d="M0 0 C1.65 0 3.3 0 5 0 C5 0.33 5 0.66 5 1 C3.35 1 1.7 1 0 1 C0 0.67 0 0.34 0 0 Z " fill="#F2F2F2" transform="translate(52,18)"/>
<path d="M0 0 C1.65 0 3.3 0 5 0 C5 0.33 5 0.66 5 1 C3.35 1 1.7 1 0 1 C0 0.67 0 0.34 0 0 Z " fill="#D8D8D8" transform="translate(27,15)"/>
<path d="M0 0 C0.66 0.66 1.32 1.32 2 2 C1.01 1.67 0.02 1.34 -1 1 C-0.67 0.67 -0.34 0.34 0 0 Z " fill="#B5B5B5" transform="translate(124,26)"/>
<path d="M0 0 C0.66 0 1.32 0 2 0 C2 0.66 2 1.32 2 2 C1.34 2 0.68 2 0 2 C0 1.34 0 0.68 0 0 Z " fill="#BFBFBF" transform="translate(27,22)"/>
<path d="M0 0 C4 1 4 1 4 1 Z " fill="#FFFFFF" transform="translate(95,14)"/>
<path d="M0 0 C3 1 3 1 3 1 Z " fill="#000000" transform="translate(124,34)"/>
<path d="M0 0 C3 1 3 1 3 1 Z " fill="#FFFFFF" transform="translate(31,29)"/>
<path d="M0 0 C3 1 3 1 3 1 Z " fill="#FFFFFF" transform="translate(8,29)"/>
<path d="" fill="#717171" transform="translate(0,0)"/>
<path d="M0 0 C3 1 3 1 3 1 Z " fill="#AAAAAA" transform="translate(7,16)"/>
<path d="M0 0 C2 1 2 1 2 1 Z " fill="#FFFFFF" transform="translate(133,32)"/>
<path d="M0 0 C2 1 2 1 2 1 Z " fill="#000000" transform="translate(56,31)"/>
<path d="M0 0 C2 1 2 1 2 1 Z " fill="#FFFFFF" transform="translate(34,28)"/>
<path d="M0 0 C2 1 2 1 2 1 Z " fill="#D4D4D4" transform="translate(6,28)"/>
<path d="M0 0 C2 1 2 1 2 1 Z " fill="#7F7F7F" transform="translate(4,27)"/>
<path d="" fill="#7F7F7F" transform="translate(0,0)"/>
<path d="M0 0 C2 1 2 1 2 1 Z " fill="#FFFFFF" transform="translate(70,19)"/>
<path d="M0 0 C2 1 2 1 2 1 Z " fill="#FFFFFF" transform="translate(50,19)"/>
<path d="M0 0 C2 1 2 1 2 1 Z " fill="#7F7F7F" transform="translate(4,18)"/>
<path d="M0 0 C2 1 2 1 2 1 Z " fill="#FFFFFF" transform="translate(33,16)"/>
<path d="M0 0 C2 1 2 1 2 1 Z " fill="#DFDFDF" transform="translate(99,15)"/>
<path d="M0 0 C2 1 2 1 2 1 Z " fill="#FFFFFF" transform="translate(93,15)"/>
<path d="" fill="#FFFFFF" transform="translate(0,0)"/>
<path d="" fill="#FFFFFF" transform="translate(0,0)"/>
<path d="" fill="#FFFFFF" transform="translate(0,0)"/>
<path d="" fill="#FFFFFF" transform="translate(0,0)"/>
<path d="" fill="#FFFFFF" transform="translate(0,0)"/>
<path d="" fill="#FFFFFF" transform="translate(0,0)"/>
<path d="" fill="#FFFFFF" transform="translate(0,0)"/>
<path d="" fill="#7F7F7F" transform="translate(0,0)"/>
<path d="" fill="#7F7F7F" transform="translate(0,0)"/>
<path d="" fill="#FFFFFF" transform="translate(0,0)"/>
<path d="" fill="#CCCCCC" transform="translate(0,0)"/>
<path d="" fill="#FFFFFF" transform="translate(0,0)"/>
<path d="" fill="#FFFFFF" transform="translate(0,0)"/>
<path d="" fill="#FFFFFF" transform="translate(0,0)"/>
<path d="" fill="#FFFFFF" transform="translate(0,0)"/>
<path d="" fill="#FFFFFF" transform="translate(0,0)"/>
<path d="" fill="#FFFFFF" transform="translate(0,0)"/>
</svg>
